<svg width="407" height="97" viewBox="0 0 407 97" fill="none" xmlns="http://www.w3.org/2000/svg">
<path d="M87.6402 70.0402C86.3602 78.4402 81.9202 85.0402 74.3202 89.8402C66.7202 94.5602 56.7602 96.9202 44.4402 96.9202C32.1202 96.9202 22.1602 94.5602 14.5602 89.8402C7.04016 85.1202 2.60016 78.6002 1.24016 70.2802C0.920156 68.0402 0.640156 65.0402 0.400156 61.2802C0.240156 57.4402 0.160156 53.3202 0.160156 48.9202C0.160156 44.6802 0.240156 40.7602 0.400156 37.1602C0.640156 33.4802 0.920156 30.6002 1.24016 28.5202C2.60016 19.7202 7.08016 12.8802 14.6802 8.00017C22.2802 3.12018 32.2002 0.680176 44.4402 0.680176C56.7602 0.680176 66.7202 3.12018 74.3202 8.00017C81.9202 12.8002 86.3602 19.4802 87.6402 28.0402C87.9602 30.1202 88.2002 33.0002 88.3602 36.6802C88.6002 40.2802 88.7202 44.2402 88.7202 48.5602C88.7202 53.1202 88.6002 57.2802 88.3602 61.0402C88.2002 64.8002 87.9602 67.8002 87.6402 70.0402ZM47.6802 64.5202V33.0802C47.6802 30.9202 46.6002 29.8402 44.4402 29.8402C42.2802 29.8402 41.2002 30.9202 41.2002 33.0802V64.5202C41.2002 66.6802 42.2802 67.7602 44.4402 67.7602C46.6002 67.7602 47.6802 66.6802 47.6802 64.5202Z" fill="white"/>
<path d="M131.61 95.0002H93.8098V2.60017H148.77C153.89 2.60017 158.57 3.52017 162.81 5.36017C167.13 7.20017 170.57 10.1602 173.13 14.2402C175.69 18.3202 176.97 23.7602 176.97 30.5602C176.97 32.4802 176.81 34.5602 176.49 36.8002C176.25 39.0402 175.65 41.2802 174.69 43.5202C173.73 45.6802 172.25 47.6402 170.25 49.4002C168.33 51.0802 165.69 52.4002 162.33 53.3602L181.29 95.0002H139.17L132.69 70.2802H131.61V95.0002ZM139.89 32.1202H128.37V38.6002H140.25C140.89 38.6002 141.57 38.4002 142.29 38.0002C143.09 37.6002 143.49 36.7602 143.49 35.4802C143.49 34.1202 143.05 33.2402 142.17 32.8402C141.29 32.3602 140.53 32.1202 139.89 32.1202Z" fill="white"/>
<path d="M278.481 95.0002H239.601L238.401 83.9602H221.361L220.161 95.0002H181.281L205.041 2.60017H254.721L278.481 95.0002ZM226.641 36.8002L225.321 48.3202H234.441L233.121 36.8002H226.641Z" fill="white"/>
<path d="M279.424 2.60017H318.304V62.8402C318.304 63.0802 318.424 63.6802 318.664 64.6402C318.984 65.6002 319.944 66.0802 321.544 66.0802C323.144 66.0802 324.064 65.6002 324.304 64.6402C324.624 63.6802 324.784 63.0802 324.784 62.8402V2.60017H363.664V64.5202C363.664 68.9202 362.944 73.0802 361.504 77.0002C360.064 80.8402 357.704 84.2802 354.424 87.3202C351.144 90.2802 346.704 92.6402 341.104 94.4002C335.584 96.0802 328.704 96.9202 320.464 96.9202C313.184 96.9202 306.944 96.0402 301.744 94.2802C296.544 92.5202 292.304 90.1202 289.024 87.0802C285.744 84.0402 283.304 80.6002 281.704 76.7602C280.184 72.9202 279.424 68.9202 279.424 64.7602V2.60017Z" fill="white"/>
<path d="M406.766 95.1202L368.966 95.0002V2.60017H406.766V95.1202Z" fill="white"/>
</svg>
